<?xml version="1.0" standalone="no"?>
<!DOCTYPE svg PUBLIC "-//W3C//DTD SVG 20010904//EN"
 "http://www.w3.org/TR/2001/REC-SVG-20010904/DTD/svg10.dtd">
<svg version="1.0" xmlns="http://www.w3.org/2000/svg"
 width="225.000000pt" height="225.000000pt" viewBox="0 0 225.000000 225.000000"
 preserveAspectRatio="xMidYMid meet">
<metadata>
Created by potrace 1.14, written by Peter Selinger 2001-2017
</metadata>
<g transform="translate(0.000000,225.000000) scale(0.100000,-0.100000)"
fill="#000000" stroke="none">
<path d="M1678 1513 c7 -3 16 -2 19 1 4 3 -2 6 -13 5 -11 0 -14 -3 -6 -6z"/>
<path d="M1905 1497 c-15 -10 -41 -12 -95 -7 -41 3 -76 3 -78 -1 -2 -4 -13 -5
-25 -2 -12 2 -1 -8 25 -24 26 -15 60 -38 76 -50 l29 -22 19 34 c10 18 28 39
41 46 13 7 23 16 23 21 0 5 9 6 20 3 11 -4 20 -2 20 4 0 15 -32 14 -55 -2z"/>
<path d="M1412 1448 c24 -20 55 -44 69 -52 25 -15 29 -14 60 9 71 52 106 73
124 76 10 2 -52 4 -139 4 l-157 0 43 -37z"/>
<path d="M746 1471 l-110 -6 40 -26 c81 -54 77 -53 138 -8 53 40 65 51 49 47
-5 -1 -57 -4 -117 -7z"/>
<path d="M990 1472 c1 -12 116 -82 135 -82 17 0 135 69 135 80 0 3 -61 6 -135
7 -74 1 -135 -1 -135 -5z"/>
<path d="M412 1443 c26 -28 36 -28 70 0 l27 22 -59 0 -59 0 21 -22z"/>
<path d="M1978 1385 c-10 -13 -18 -28 -18 -34 0 -16 -40 -38 -81 -45 -32 -6
-39 -2 -68 29 -17 19 -37 35 -43 35 -7 0 -4 6 7 13 16 13 15 13 -16 9 -23 -3
-52 -22 -92 -58 -72 -67 -112 -77 -173 -44 -24 12 -45 28 -48 36 -3 8 -10 14
-16 14 -6 0 -20 9 -32 20 -12 11 -32 20 -44 20 -25 0 -74 -23 -77 -36 -6 -32
-160 -95 -180 -75 -6 6 -17 11 -25 11 -8 0 -48 23 -88 50 -79 54 -95 58 -114
35 -7 -8 -19 -15 -26 -15 -8 0 -14 -4 -14 -10 0 -20 -63 -70 -96 -76 -47 -9
-87 10 -162 73 -36 30 -68 50 -75 46 -8 -5 -7 -8 1 -11 25 -8 -52 -100 -89
-107 -12 -3 -16 1 -12 11 4 10 0 12 -11 8 -31 -12 -61 6 -89 51 -30 47 -51 57
-60 28 -3 -10 -12 -35 -21 -56 l-17 -38 30 -10 c25 -9 30 -17 33 -47 2 -30 7
-38 26 -40 17 -3 21 -8 17 -22 -4 -13 1 -19 19 -22 22 -4 24 -3 15 13 -8 16
-6 19 13 19 105 -1 500 10 566 16 104 8 109 -8 7 -24 -139 -22 -253 -71 -350
-151 -27 -23 -56 -41 -65 -41 -8 0 -42 29 -76 64 l-61 64 -44 -12 c-24 -6 -50
-15 -56 -19 -7 -5 -17 -5 -23 -2 -10 6 -15 -38 -11 -105 3 -42 39 -79 79 -81
17 -1 21 -3 9 -6 -22 -6 -12 -23 14 -23 11 0 17 -5 14 -10 -4 -6 -10 -8 -15
-5 -4 3 -19 1 -32 -4 -22 -9 -22 -10 7 -11 26 -1 27 -3 10 -10 -18 -8 -18 -9
-2 -9 10 -1 15 -5 12 -11 -4 -6 6 -11 22 -11 15 -1 21 -3 11 -6 -9 -2 -18 -10
-21 -16 -3 -9 43 -12 187 -13 146 -1 200 -5 230 -16 40 -16 40 -16 -90 -22
-175 -8 -258 -20 -326 -46 -66 -25 -67 -29 -43 -125 25 -98 34 -101 285 -108
152 -5 144 2 -27 25 -46 6 -83 15 -83 20 0 4 -8 8 -17 9 -15 0 -15 2 2 9 16 7
17 9 3 9 -17 1 -22 12 -32 71 -8 48 11 80 58 96 52 17 200 20 301 5 44 -6 127
-13 185 -15 58 -2 116 -9 130 -14 14 -5 44 -16 68 -23 30 -9 39 -15 30 -21
-10 -7 -9 -8 2 -6 34 5 66 -12 77 -42 8 -21 18 -30 35 -31 22 0 22 -1 3 -9
-11 -5 -14 -9 -7 -9 6 -1 20 -9 30 -19 10 -10 35 -28 56 -41 38 -24 40 -24
235 -18 108 4 213 12 234 17 48 14 63 39 79 128 10 61 10 75 -1 82 -8 4 -19 6
-25 4 -6 -2 -49 -8 -95 -13 -82 -9 -111 -7 -111 8 0 15 121 41 212 45 25 1 25
2 11 19 -9 9 -30 17 -47 18 -31 0 -31 0 -6 10 14 6 28 17 33 25 4 8 15 14 22
14 10 0 15 11 15 33 l0 33 -72 -3 c-72 -2 -72 -2 -20 7 54 8 81 20 46 20 -14
0 -9 7 18 26 28 20 39 36 43 63 4 20 8 47 10 61 3 20 2 19 -10 -7 -8 -18 -18
-33 -23 -33 -4 0 -31 16 -60 36 -64 43 -149 81 -260 118 -46 16 -81 30 -79 32
2 3 44 0 93 -6 103 -11 228 -12 264 0 14 4 21 9 15 10 -5 1 -1 5 10 9 13 5 22
20 25 42 5 30 9 34 47 42 23 4 44 15 47 24 7 18 -22 103 -35 103 -5 0 -8 5 -6
11 4 22 -18 18 -35 -6z m-751 -559 c4 -5 2 -11 -4 -13 -19 -7 -16 -30 4 -42
34 -18 -57 -26 -297 -25 -147 1 -244 5 -260 12 l-25 11 23 7 c21 6 24 10 26
37 1 6 6 16 11 20 14 11 511 4 522 -7z m583 -92 c22 -5 28 -9 18 -15 -7 -5
-22 -9 -33 -9 -41 -1 -116 -47 -200 -125 -48 -44 -95 -84 -105 -89 -14 -6 -44
5 -117 43 -178 92 -288 129 -451 152 -52 7 -87 16 -79 20 7 4 181 9 387 10
206 1 385 5 399 10 33 9 138 11 181 3z"/>
<path d="M439 1324 c-18 -19 -27 -32 -18 -29 14 5 65 65 56 65 -2 0 -19 -16
-38 -36z"/>
</g>
</svg>
